<svg id="Layer_1" data-name="Layer 1" xmlns="http://www.w3.org/2000/svg" viewBox="0 0 99.36 16.85"><defs><style>.cls-1{fill:#fff;}</style></defs><title>logo_fusion_rev</title><polygon class="cls-1" points="24.95 5.24 24.95 7.25 28.19 7.25 28.19 8.67 24.95 8.67 24.95 11.99 23.35 11.99 23.35 3.81 28.75 3.81 28.75 5.24 24.95 5.24"/><path class="cls-1" d="M33.17,12.56V12a2,2,0,0,1-1.49.62,2,2,0,0,1-1.42-.53,2.22,2.22,0,0,1-.61-1.7V6.58h1.5V10.2a1,1,0,1,0,2,0V6.58h1.5v6H33.17Z" transform="translate(0 -0.57)"/><path class="cls-1" d="M38.32,12.63a3.27,3.27,0,0,1-2.55-.86l1-1a2.19,2.19,0,0,0,1.6.56,0.88,0.88,0,0,0,1.06-.62,0.55,0.55,0,0,0-.63-0.55l-0.95-.09a1.61,1.61,0,0,1-1.75-1.68,2.06,2.06,0,0,1,2.32-1.91,3.19,3.19,0,0,1,2.29.7l-0.92.93a2.12,2.12,0,0,0-1.4-.4,0.69,0.69,0,0,0-.85.57c0,0.22.09,0.47,0.62,0.52l0.95,0.09a1.69,1.69,0,0,1,1.79,1.76C40.87,12,39.74,12.63,38.32,12.63Z" transform="translate(0 -0.57)"/><path class="cls-1" d="M42.13,5.56V4.34h1.53V5.56H42.13m0,7v-6h1.5v6h-1.5Z" transform="translate(0 -0.57)"/><path class="cls-1" d="M49.5,11.9a2.5,2.5,0,0,1-1.87.73,2.46,2.46,0,0,1-1.85-.73,3,3,0,0,1-.68-2.34,3,3,0,0,1,.68-2.32,2.45,2.45,0,0,1,1.85-.73,2.49,2.49,0,0,1,1.87.73,3,3,0,0,1,.68,2.32,3,3,0,0,1-.68,2.34M48.34,8.12a1,1,0,0,0-.7-0.26,0.91,0.91,0,0,0-.69.26,2,2,0,0,0-.35,1.45A2.05,2.05,0,0,0,46.95,11a0.91,0.91,0,0,0,.69.26,1,1,0,0,0,.7-0.26,2.08,2.08,0,0,0,.35-1.46A2,2,0,0,0,48.34,8.12Z" transform="translate(0 -0.57)"/><path class="cls-1" d="M54.91,12.56V8.94a1,1,0,1,0-2,0v3.62h-1.5v-6h1.46V7.13a2.05,2.05,0,0,1,1.5-.62A2,2,0,0,1,55.8,7a2.23,2.23,0,0,1,.61,1.7v3.82h-1.5Z" transform="translate(0 -0.57)"/><path class="cls-1" d="M67,12.56l-0.65-1.86H62.73l-0.66,1.86H61.14l3-8.2h0.73l3,8.2H67M64.54,5.62L63,9.95h3.06Z" transform="translate(0 -0.57)"/><path class="cls-1" d="M70.29,12.56a1.35,1.35,0,0,1-1.43-1.51V4.36h0.83V11a0.68,0.68,0,0,0,.75.83H70.9v0.71h-0.6Z" transform="translate(0 -0.57)"/><path class="cls-1" d="M73.52,12.56a1.35,1.35,0,0,1-1.43-1.51V4.36h0.83V11a0.68,0.68,0,0,0,.76.83h0.45v0.71h-0.6Z" transform="translate(0 -0.57)"/><path class="cls-1" d="M75.28,5.28V4.35h0.93V5.28H75.28m0,7.28V6.9h0.83v5.67H75.33Z" transform="translate(0 -0.57)"/><path class="cls-1" d="M81.26,12.56V12a2,2,0,0,1-1.64.61,2,2,0,0,1-1.6-.52A1.64,1.64,0,0,1,77.6,11c0-1,.69-1.64,2-1.64h1.7V8.79c0-.83-0.41-1.25-1.45-1.25a1.49,1.49,0,0,0-1.43.65l-0.56-.53a2.21,2.21,0,0,1,2-.84c1.52,0,2.27.66,2.27,1.89v3.84H81.26m0-2.61H79.67a1,1,0,0,0-1.27,1c0,0.66.4,1,1.3,1A1.65,1.65,0,0,0,81,11.54a1.32,1.32,0,0,0,.29-1V9.95Z" transform="translate(0 -0.57)"/><path class="cls-1" d="M87.31,12.56V9.07a1.32,1.32,0,0,0-1.39-1.51,1.33,1.33,0,0,0-1.41,1.51v3.49H83.68V6.9h0.83V7.52a2,2,0,0,1,1.59-.69,2,2,0,0,1,1.45.53,2.12,2.12,0,0,1,.58,1.58v3.62H87.31Z" transform="translate(0 -0.57)"/><path class="cls-1" d="M91.94,12.63c-1.43,0-2.51-1-2.51-2.91s1.08-2.9,2.51-2.9a2.25,2.25,0,0,1,1.86.84l-0.57.53a1.58,1.58,0,0,0-1.3-.63,1.53,1.53,0,0,0-1.32.65,2.41,2.41,0,0,0-.37,1.52,2.42,2.42,0,0,0,.37,1.52,1.53,1.53,0,0,0,1.32.65,1.58,1.58,0,0,0,1.3-.65l0.57,0.54A2.25,2.25,0,0,1,91.94,12.63Z" transform="translate(0 -0.57)"/><path class="cls-1" d="M95.53,9.95c0,1.25.59,2,1.67,2a1.87,1.87,0,0,0,1.49-.65l0.56,0.5a2.61,2.61,0,0,1-2.08.87c-1.49,0-2.47-.9-2.47-2.91,0-1.83.88-2.9,2.33-2.9s2.33,1.06,2.33,2.74V9.95H95.53m2.82-1.57a1.46,1.46,0,0,0-2.65,0,2.36,2.36,0,0,0-.17.95h3A2.29,2.29,0,0,0,98.35,8.38Z" transform="translate(0 -0.57)"/><circle class="cls-1" cx="15.15" cy="8.91" r="2.73" transform="translate(-0.58 0.5) rotate(-3.97)"/><path class="cls-1" d="M9.34,14.88a2.73,2.73,0,1,1,2.92,2.54A2.72,2.72,0,0,1,9.34,14.88Z" transform="translate(0 -0.57)"/><path class="cls-1" d="M7.08,5.57a2.73,2.73,0,1,1,.74-3.8A2.73,2.73,0,0,1,7.08,5.57Z" transform="translate(0 -0.57)"/><path class="cls-1" d="M13.55,5.56a2.73,2.73,0,1,1,.74-3.79A2.73,2.73,0,0,1,13.55,5.56Z" transform="translate(0 -0.57)"/><circle class="cls-1" cx="8.86" cy="8.87" r="2.73" transform="translate(-3.45 5.9) rotate(-34)"/><path class="cls-1" d="M3.05,13.86a2.7,2.7,0,1,0,3.42-1.69h0c-1.41-.47-1.71-1-1.23-2.44a2.69,2.69,0,1,0-3.42,1.69c1.41,0.48,1.71,1,1.22,2.44h0Z" transform="translate(0 -0.57)"/></svg>